2024-05-01T22:52:31.569Z get-attribute args url=https://m.twitch.tv/gigaohmbiological selector=a[href^="/videos"] attribute=href useProp=true timeout=10000 launchargs={"headless":true,"args":["--no-sandbox","--disable-setuid-sandbox"]}
2024-05-01T22:52:31.864Z get-attribute launched successfully
2024-05-01T22:52:32.436Z get-attribute navigated to url successfully
2024-05-01T22:52:32.586Z get-attribute waited for selector successfully
2024-05-01T22:52:32.591Z get-attribute got attribute value https://m.twitch.tv/videos/2134500509
npm notice 
npm notice New minor version of npm available! 10.5.1 -> 10.7.0
npm notice Changelog: <https://github.com/npm/cli/releases/tag/v10.7.0>
npm notice Run `npm install -g npm@10.7.0` to update!
npm notice 
Looking up video...
Fetching access token...
Fetching playlists...
Fetching playlist...
Joining files...
size=       0kB time=00:00:00.00 bitrate=N/A speed=N/A    size=   78848kB time=01:02:22.54 bitrate= 172.6kbits/s speed=7.48e+03x    size=  157952kB time=02:05:09.46 bitrate= 172.3kbits/s speed=7.51e+03x    size=  164932kB time=02:09:37.92 bitrate= 173.7kbits/s speed=7.43e+03x    
Deleting temporary files...
the_human_mind_as_a_battlefield_study_hall_1_may_2024_gigaohm_biological_high_resistance_low_noise_information_brief.m4a
DOWNLOAD_OK
